<svg id="Capa_1" data-name="Capa 1" xmlns="http://www.w3.org/2000/svg" viewBox="0 0 40 40"><defs><style>.cls-1{fill:#d9802d;}.cls-1,.cls-2{fill-rule:evenodd;}.cls-2{fill:#5e3d31;}</style></defs><title>Mesa de trabajo 1</title><path class="cls-1" d="M16.33,39.27a13.47,13.47,0,0,1-7.4-4.77A12,12,0,0,1,7.57,23.62a19,19,0,0,1,1-2.51,38.65,38.65,0,0,0,2.11-4.31,54.47,54.47,0,0,0-5.08,7.26,10.35,10.35,0,0,0-.9,7.78A9.83,9.83,0,0,0,9.06,37c.94.62,6.53,3.05,7.27,2.26"/><path class="cls-1" d="M18.13,19.29c-.71,1.87-1.73,3-2.4,4.45,2.74-2,2.88-3,6.95-2.67-4.29-2-2.72-3.09-3.28-7.73-.08.13-.85,4.84-1.27,5.95"/><path class="cls-2" d="M11.67,14.06a4.68,4.68,0,0,0-.55-3.54c-1.45,1.28-1.92,3.91.55,3.54"/><path class="cls-1" d="M33.21,17.13C35.35,24.76,20,24.1,15.34,29c-2.44,2.57-2,5.73.44,7.67,4,3.17,13,2.77,17.69,0,1.39-.84,3.3-2.42,3.67-4.09l-.5.61c-3.34,3.79-9.78,4.2-14.42,2.38C11.54,30.78,31.59,24,38,27.62c-.1-1.43-4.25-10.3-4.79-10.49"/><path class="cls-2" d="M18.28,5.79c2.41-2.38-2.1-7.92-5.4-2.46-2.21-1.1-4.53,2.53-2,3.62a4.74,4.74,0,0,1,3-2.61c2.81-.73,3.14,1,4.42,1.45"/><path class="cls-1" d="M10.73,9.62a5,5,0,0,1,0-2.29A10.39,10.39,0,0,0,7.59,8.55a14.11,14.11,0,0,1,3.13,1.07"/><path class="cls-2" d="M12.79,7.51A.49.49,0,1,1,12.3,8a.49.49,0,0,1,.49-.49"/></svg>